<svg xmlns="http://www.w3.org/2000/svg" version="1.1" xmlns:xlink="http://www.w3.org/1999/xlink" xmlns:svgjs="http://svgjs.dev/svgjs" width="2000" height="2250" viewBox="0 0 2000 2250"><g transform="matrix(1,0,0,1,3.410605131648481e-13,0)"><svg viewBox="0 0 320 360" data-background-color="#ffffff" preserveAspectRatio="xMidYMid meet" height="2250" width="2000" xmlns="http://www.w3.org/2000/svg" xmlns:xlink="http://www.w3.org/1999/xlink"><g id="tight-bounds" transform="matrix(1,0,0,1,0,0)"><svg viewBox="0 0 320 360" height="360" width="320"><g><svg></svg></g><g><svg viewBox="0 0 320 360" height="360" width="320"><g><path d="M20.961 227.22l3.726 4.658-1.863-6.056c-0.466-2.795-3.726 0.466-1.863 1.398M25.153 224.425c1.397 2.329 2.795 4.658 2.795 6.987 0 3.261 2.795 4.658 5.123 5.589-3.261-3.726-5.124-13.974-7.918-12.576M204.017 26.929c7.918 0 15.371-0.932 23.756 0.931 20.495 5.124 37.729 15.371 49.374 29.811l32.606 52.169c1.397 13.042 4.192 27.482 3.726 43.319 3.261 0 2.795-4.658 6.521-5.59-3.726 9.316-5.59 20.961-6.521 34.469-2.329-7.453 0-18.632 0.466-24.687-3.261 5.124-5.124 1.397-5.124-0.932 0.466-3.726-1.397-3.261-2.795-4.658-5.124-4.658-8.384-9.782-12.11-17.7 2.329-6.055 2.795-14.905-4.658-19.563-2.329-1.397-5.124-3.726-6.521-7.453-1.863-5.124-5.124-11.179-4.193-19.097 0.466-2.329-6.987 5.124-11.179 1.863-18.166-12.576-36.332-27.016-58.224-39.127-11.645 0-20.029-4.192-24.221-9.316-3.726-4.658-0.932-10.713 4.658-11.179 3.261 0 6.987-0.932 9.782 0.932 0.466-1.863 2.329-4.192 4.657-4.192M157.904 16.215l0.932 0.466c4.658 0.932 6.987 7.453 12.11 5.124 0 3.261 0.466 6.521-0.466 8.85-1.397 3.726-5.59 3.726-8.85 3.726-31.208-1.863-49.374 11.179-68.471 22.358-5.124 3.261-10.713 5.59-14.906 9.782-20.029 18.632-41.921 35.866-47.045 70.335l-4.192 38.195c-0.466 4.192-5.124 8.384-4.192 13.508l3.26 22.824c-3.261-3.261-5.124 0.932-4.192 2.795 0.466 1.397 2.329 6.055 5.124 1.863 3.726 6.987 7.453 20.495 12.576 26.55 15.837 18.632 36.332 35.4 53.101 52.169 4.192-0.932 7.453-0.932 8.384-3.727 1.397 2.795-1.397 5.59-3.726 6.056 7.453 4.658 15.837 8.85 27.016 9.781 14.44 0.932 27.948 3.261 40.524 6.522 6.521-1.863 13.042-2.795 20.029-3.261 2.329 0 3.726-3.726 6.521-4.658l0.466-4.658c2.795 4.192 2.329-1.397 0.466-4.192 3.261 2.795 4.192 5.124 5.589 6.987 0-1.397 3.726-6.521 3.727-0.466l0.931-6.055c1.397-0.932 1.863 5.124 3.261 0.931 1.397-4.192 4.192-0.932 6.987-2.329-0.932 1.863-0.466 5.59 2.794 3.261l3.727-3.261c2.329 5.59 6.055 3.261 7.918 2.329 20.495-13.042 40.99-28.413 60.553-43.784l-0.466 6.055 2.329-7.453c2.329 2.329 4.192 0.466 5.124-0.931 2.795-4.658 6.521-9.316 12.577-13.508-7.453 20.029-16.303 35.866-27.482 48.908l-4.658 5.59c0 3.261-0.932 7.453-4.658 7.918-1.863 0.466-5.59-0.932-8.384 1.863-1.397 1.863 3.261 5.59-0.466 2.795-3.261-2.329-6.521 0-10.248 0.932-2.795 0.932 1.863 3.726 2.795 5.589 0.932 1.863 1.863 3.726 1.398 6.056l-5.124-5.59c-6.055 3.261-9.782 9.316-14.906 13.974-2.329 1.863-1.397 5.124-1.397 7.918-3.261 0-6.987-0.932-8.85 0.932-1.397 1.863-0.932 4.658-0.932 7.453-4.658-0.466-5.124-7.453-9.315-6.056-4.192 0.932-8.85 1.397-12.577 3.727 2.795 5.59-4.658 2.329-3.726 3.26-6.987-4.192-13.042-7.453-20.495-4.658-15.837-5.124-35.4-2.795-49.84-0.931 0-2.329 0.466-4.658-0.466-5.124-0.932 2.329-3.726 1.397-3.26 1.397-8.85-6.055-17.7-9.782-27.016-14.905-8.384 0.932-16.303-3.261-18.632-5.59-6.521-6.055-13.974-2.795-20.029-4.192-13.042-3.261-17.7-16.769-19.098-26.084-0.932-4.658-4.658-6.521-6.055-6.056-6.055-19.563-15.371-37.263-22.824-55.429-1.863-4.658-1.397-9.316-1.397-14.44 2.329 0.932 4.658 0.466 4.192-2.794-2.329-15.371-7.918-27.016-13.974-38.195 3.261-15.837 3.726-34.469 11.179-48.443 6.521-12.576 18.632-19.098 27.016-29.811 2.795-3.726 2.795-8.85 5.59-12.11 9.316-9.316 18.632-19.098 28.879-27.482 4.658-3.726 10.247 0 17.234-1.397 2.329-8.384 11.645-15.837 20.495-13.508 3.726 0.932 11.179-8.85 13.508-9.782 3.726-1.397 1.863 3.726 1.863 6.987 8.85-6.987 20.961-10.713 32.14-14.906" fill="#6936f5" fill-rule="nonzero" stroke="none" stroke-width="1" stroke-linecap="butt" stroke-linejoin="miter" stroke-miterlimit="10" stroke-dasharray="" stroke-dashoffset="0" font-family="none" font-weight="none" font-size="none" text-anchor="none" style="mix-blend-mode: normal" data-fill-palette-color="tertiary"></path></g><g transform="matrix(1,0,0,1,64,162.87898089171975)"><svg viewBox="0 0 192 34.24203821656051" height="34.24203821656051" width="192"><g><svg viewBox="0 0 192 34.24203821656051" height="34.24203821656051" width="192"><g><svg viewBox="0 0 192 34.24203821656051" height="34.24203821656051" width="192"><g><svg viewBox="0 0 192 34.24203821656051" height="34.24203821656051" width="192"><g id="textblocktransform"><svg viewBox="0 0 192 34.24203821656051" height="34.24203821656051" width="192" id="textblock"><g><svg viewBox="0 0 192 34.24203821656051" height="34.24203821656051" width="192"><g transform="matrix(1,0,0,1,0,0)"><svg width="192" viewBox="3.5 -27 156.99 28" height="34.24203821656051" data-palette-color="#6936f5"><path d="M31-15.75L31 0 24 0 24-15.75Q24-19.35 22.2-20.93 20.4-22.5 17-22.5L17-22.5 10.5-22.5 10.5 0 3.5 0 3.5-26 17-26Q24.15-26 27.58-23.43 31-20.85 31-15.75L31-15.75ZM52.75-2.5L52.75-2.5Q55.2-2.5 57.32-3.35 59.45-4.2 61.5-5.75L61.5-5.75 63.5-2.75Q62.55-1.9 61.27-1.2 60-0.5 58.52-0.03 57.05 0.45 55.45 0.73 53.85 1 52.25 1L52.25 1Q48.7 1 45.77 0.08 42.85-0.85 40.8-2.63 38.75-4.4 37.62-7 36.5-9.6 36.5-13L36.5-13Q36.5-16.35 37.57-18.98 38.65-21.6 40.57-23.38 42.5-25.15 45.15-26.08 47.8-27 51-27L51-27Q54-27 56.65-26.1 59.3-25.2 61.25-23.48 63.2-21.75 64.35-19.3 65.5-16.85 65.5-13.75L65.5-13.75 65.5-10.25 44.15-10.25Q44.75-6.1 47.02-4.3 49.3-2.5 52.75-2.5ZM51-23.75L51-23.75Q49.55-23.75 48.3-23.2 47.05-22.65 46.12-21.45 45.2-20.25 44.62-18.35 44.05-16.45 44-13.75L44-13.75 58-13.75Q58-16.35 57.4-18.25 56.8-20.15 55.82-21.38 54.85-22.6 53.57-23.18 52.3-23.75 51-23.75ZM96.5-26L85.75-13.15 96.75 0 88.75 0 81.75-8.35 74.75 0 66.75 0 77.75-13.15 67-26 75-26 81.75-17.9 88.5-26 96.5-26ZM100.24-10.25L100.24-26 107.24-26 107.24-10.25Q107.24-6.65 109.04-5.08 110.84-3.5 114.24-3.5L114.24-3.5 120.74-3.5 120.74-26 127.74-26 127.74 0 114.24 0Q107.09 0 103.67-2.58 100.24-5.15 100.24-10.25L100.24-10.25ZM140.74-20.5L140.74-20.5Q140.74-19.35 141.77-18.4 142.79-17.45 145.24-16.75L145.24-16.75 152.99-14.5Q156.59-13.45 158.54-11.65 160.49-9.85 160.49-7L160.49-7Q160.49-5.2 159.74-3.73 158.99-2.25 157.29-1.2 155.59-0.15 152.89 0.43 150.19 1 146.24 1L146.24 1Q144.19 1 142.22 0.7 140.24 0.4 138.47-0.13 136.69-0.65 135.24-1.33 133.79-2 132.74-2.75L132.74-2.75 134.74-5.75Q136.84-4.45 139.67-3.48 142.49-2.5 146.24-2.5L146.24-2.5Q149.99-2.5 151.49-3.5 152.99-4.5 152.99-6L152.99-6Q152.99-7.15 151.94-8.08 150.89-9 148.24-9.75L148.24-9.75 140.49-12Q137.29-12.95 135.27-14.73 133.24-16.5 133.24-19.5L133.24-19.5Q133.24-21.1 133.97-22.48 134.69-23.85 136.24-24.85 137.79-25.85 140.19-26.43 142.59-27 145.99-27L145.99-27Q150.14-27 153.52-25.88 156.89-24.75 158.99-23.25L158.99-23.25 156.99-20.25Q154.94-21.55 152.34-22.53 149.74-23.5 145.99-23.5L145.99-23.5Q143.34-23.5 142.04-22.65 140.74-21.8 140.74-20.5Z" opacity="1" transform="matrix(1,0,0,1,0,0)" fill="#6936f5" class="wordmark-text-0" data-fill-palette-color="primary" id="text-0"></path></svg></g></svg></g></svg></g></svg></g><g></g></svg></g></svg></g></svg></g></svg></g><defs></defs></svg><rect width="320" height="360" fill="none" stroke="none" visibility="hidden"></rect></g></svg></g></svg>